<svg version="1" xmlns="http://www.w3.org/2000/svg" width="213.333" height="213.333" viewBox="0 0 160.000000 160.000000"><path d="M13.7 17.4c-1 .8-2 2.9-2.2 4.7-.2 1.9-.7 5.4-1 7.9-.3 2.5-.8 6.5-1.1 9-.2 2.5-.6 5.5-.9 6.8-.2 1.3-.7 5.3-1 9-.4 3.7-.9 7.8-1.1 9.2-.2 1.4-.6 4.5-.9 7-.2 2.5-.7 6.5-1 9-.4 2.5-.8 6.5-1.1 9-.2 2.5-.6 6.1-.8 8-2.6 19.2-2.7 24.7-.5 29 1 1.9 2 6 2.4 9 1.9 17 2.4 19 4.8 19 .7 0 1.7 1 2.2 2.2.9 2 1.7 2.2 13.4 2.2 11.9.1 12.4 0 13.4-2.2 1-2.1 1.6-2.2 12.6-2.2 45.4-.2 69.4 0 70.2.6.6.3.8 1.2.5 2-.6 1.6-1.2 1.6 12.9 1.8 11.5.1 14.5-.5 14.5-2.9 0-.8.6-1.5 1.4-1.5 1.7 0 2.6-1.2 3.1-4.3 1-5.9 1.6-10.6 2.1-14.4.2-2.3 1.2-6.4 2.2-9 1.9-4.8 2.1-10.1.8-19.3-.3-2.5-.8-7.2-1.1-10.5-.3-3.3-.7-7.4-.9-9-.4-2.7-1.1-8.8-2.1-17-.2-1.7-.6-5.9-1-9.5-.4-3.6-.9-7.6-1.1-9-.3-1.4-.7-4.3-.9-6.5-.3-2.2-.7-5.8-1-8.1-.3-2.2-.8-6-1.1-8.5-.8-7-2.3-11.6-3.9-12.3-.9-.3-30.5-.6-65.8-.5-52.2 0-64.5.2-66 1.3z"/></svg>